<svg xmlns="http://www.w3.org/2000/svg" xmlns:xlink="http://www.w3.org/1999/xlink" width="1920" height="385" viewBox="0 0 1920 385"><defs><style>.a{fill:#fff;}.b{clip-path:url(#a);}.c{fill:#f4f7f6;}</style><clipPath id="a"><rect class="a" width="1920" height="385" transform="translate(0 695)"/></clipPath></defs><g class="b" transform="translate(0 -695)"><path class="c" d="M1005.153,1772.709C390.928,1642.152-56.5,1298.736,5.792,1005.668c21.254-99.991,99.158-181.219,216.9-239.64C60.718,632.844-23.641,483.135,5.792,344.669,68.085,51.6,616.512-80.139,1230.737,50.419S2292.393,524.392,2230.1,817.459c-21.254,99.991-99.158,181.219-216.9,239.64,161.971,133.185,246.329,282.894,216.9,421.36-45.964,216.241-356.677,344.65-763.118,344.668C1322.58,1823.134,1166.17,1806.934,1005.153,1772.709Z" transform="translate(1965.258 1768.926) rotate(146)"/></g></svg>