<svg xmlns="http://www.w3.org/2000/svg" width="1em" height="1em" viewBox="0 0 17.761 19.734">
<path fill="currentColor" d="M20.288,3.473H16.163a2.948,2.948,0,0,0-5.565,0H6.473A1.979,1.979,0,0,0,4.5,5.447V19.261a1.979,1.979,0,0,0,1.973,1.973H20.288a1.979,1.979,0,0,0,1.973-1.973V5.447A1.979,1.979,0,0,0,20.288,3.473Zm-6.907,0a.987.987,0,1,1-.987.987A.99.99,0,0,1,13.38,3.473Zm1.973,13.814H8.447V15.314h6.907Zm2.96-3.947H8.447V11.367h9.867Zm0-3.947H8.447V7.42h9.867Z" transform="translate(-4.5 -1.5)"/>
</svg>