<svg id="Icon_awesome-flag" data-name="Icon awesome-flag" xmlns="http://www.w3.org/2000/svg" width="1rem" height="1rem" viewBox="0 0 24.609 25">
  <path id="Icon_awesome-flag-2" data-name="Icon awesome-flag" d="M17.24,4.823c-2.617,0-4.778-1.7-8.067-1.7a9.49,9.49,0,0,0-3.323.587A2.735,2.735,0,1,0,1.734,4.978v18.85A1.172,1.172,0,0,0,2.906,25h.781a1.172,1.172,0,0,0,1.172-1.172V19.219a13.642,13.642,0,0,1,5.588-1.08c2.617,0,4.778,1.7,8.067,1.7a10.222,10.222,0,0,0,5.982-2,1.56,1.56,0,0,0,.676-1.287V4.685a1.562,1.562,0,0,0-2.221-1.417,14.216,14.216,0,0,1-5.71,1.555Z" transform="translate(-0.563)" fill="currentColor"/>
</svg>
