<svg xmlns="http://www.w3.org/2000/svg" width="1em" height="1em" viewBox="0 0 29.05 29.05">
<g transform="translate(0 0)">
<path fill="currentColor" d="M21.929,14.529a7.044,7.044,0,0,0,0-2.058l2.278-1.733a.52.52,0,0,0,.13-.672L22.177,6.434a.55.55,0,0,0-.658-.231l-2.688,1.05a7.943,7.943,0,0,0-1.824-1.029L16.6,3.441A.522.522,0,0,0,16.067,3H11.749a.522.522,0,0,0-.529.441l-.41,2.783A8.352,8.352,0,0,0,8.986,7.253L6.3,6.2a.533.533,0,0,0-.658.231L3.481,10.067a.508.508,0,0,0,.13.672l2.278,1.733A8.1,8.1,0,0,0,5.812,13.5a8.1,8.1,0,0,0,.076,1.029L3.61,16.262a.52.52,0,0,0-.13.672L5.64,20.567A.55.55,0,0,0,6.3,20.8l2.688-1.05a7.943,7.943,0,0,0,1.824,1.029l.41,2.782a.522.522,0,0,0,.529.441h4.318a.522.522,0,0,0,.529-.441l.41-2.783a8.352,8.352,0,0,0,1.824-1.029l2.688,1.05a.533.533,0,0,0,.658-.231l2.159-3.633a.52.52,0,0,0-.13-.672l-2.278-1.733Zm-8.02,2.646A3.676,3.676,0,1,1,17.686,13.5,3.732,3.732,0,0,1,13.908,17.175Z" transform="matrix(0.839, 0.545, -0.545, 0.839, 10.215, -4.371)"/></g></svg>