<svg xmlns="http://www.w3.org/2000/svg" width="1em" height="1em" viewBox="0 0 23.054 16.138">
<path fill="currentColor" d="M3.458,9.166A2.305,2.305,0,1,0,1.153,6.861,2.308,2.308,0,0,0,3.458,9.166Zm16.138,0A2.305,2.305,0,1,0,17.29,6.861,2.308,2.308,0,0,0,19.6,9.166Zm1.153,1.153H18.443a2.3,2.3,0,0,0-1.625.67,5.269,5.269,0,0,1,2.705,3.941H21.9a1.151,1.151,0,0,0,1.153-1.153V12.624A2.308,2.308,0,0,0,20.748,10.319Zm-9.222,0A4.034,4.034,0,1,0,7.493,6.284,4.032,4.032,0,0,0,11.527,10.319Zm2.766,1.153h-.3a5.57,5.57,0,0,1-4.935,0h-.3a4.151,4.151,0,0,0-4.15,4.15v1.037A1.729,1.729,0,0,0,6.34,18.388H16.714a1.729,1.729,0,0,0,1.729-1.729V15.621A4.151,4.151,0,0,0,14.293,11.472Zm-8.058-.483a2.3,2.3,0,0,0-1.625-.67H2.305A2.308,2.308,0,0,0,0,12.624v1.153A1.151,1.151,0,0,0,1.153,14.93H3.527A5.282,5.282,0,0,1,6.235,10.989Z" transform="translate(0 -2.25)"/></svg>