<svg id="Component_43_3" data-name="Component 43 – 3" xmlns="http://www.w3.org/2000/svg" width="117.385" height="37.231" viewBox="0 0 117.385 37.231">
  <text id="Compliance" transform="translate(0 33.231)" fill="#646464" font-size="16" font-family="SignPainter-HouseScript, SignPainter"><tspan x="0" y="0">Compliance</tspan></text>
  <path id="Path_60" data-name="Path 60" d="M1439.466,417.658h9.325c6.653,0,10.006,4.06,10.006,8.905,0,5.684-4.165,9.508-10.058,9.508h-9.273Zm5.973,14.275h2.593c2.959,0,4.453-1.781,4.453-5.239,0-2.829-1.179-4.9-4.453-4.924h-2.593Z" transform="translate(-1439.466 -417.387)" fill="#5bdd88"/>
  <path id="Path_61" data-name="Path 61" d="M1627.807,428.737h-9.849v3.091h10.373l-.053,4.243h-16.213V417.658h16.266V421.9h-10.373v2.567h9.849Z" transform="translate(-1590.451 -417.387)" fill="#5bdd88"/>
  <path id="Path_62" data-name="Path 62" d="M1756.841,436.071l-7.177-18.413h6.523l2.7,8.251a59.094,59.094,0,0,1,1.7,5.946h.052a62.159,62.159,0,0,1,1.886-6.208l2.515-7.989h6.417l-7.308,18.413Z" transform="translate(-1711.015 -417.387)" fill="#5bdd88"/>
  <path id="Path_63" data-name="Path 63" d="M2083.971,415.462h-1.807l-8.3,18.7h1.662c1.7-3.823,6.808-15.223,7.453-17.312H2083c1.161,3,6.25,13.725,7.862,17.312h1.725Z" transform="translate(-1995.608 -415.462)" fill="#5bdd88"/>
  <path id="Path_64" data-name="Path 64" d="M2244.563,422.149c0,5.343-3.615,9.8-9.613,9.8-5.84,0-9.691-4.322-9.691-9.822a9.652,9.652,0,1,1,19.3.026Zm-17.575-.1c0,4.269,2.8,8.382,7.962,8.382,5,0,7.884-3.615,7.884-8.225,0-4.164-2.881-8.224-8.04-8.224C2230.053,413.977,2226.988,417.67,2226.988,422.044Z" transform="translate(-2127.178 -412.352)" fill="#5bdd88"/>
  <path id="Path_66" data-name="Path 66" d="M1930.753,416.647h7.628c6.008,0,9.87,3.892,9.87,8.96,0,5.955-4.567,9.586-9.922,9.586h-7.575Zm1.584,17.015h5.434c6.044,0,8.97-2.991,8.97-8.017,0-5.056-3.409-7.481-8.714-7.512h-5.69Z" transform="translate(-1869.368 -416.503)" fill="#5bdd88"/>
</svg>
