<svg id="Icon_ionic-ios-document" data-name="Icon ionic-ios-document" xmlns="http://www.w3.org/2000/svg" width="1rem" height="1rem" viewBox="0 0 19 25">
  <path id="Path_11245" data-name="Path 11245" d="M21.789,10.126h5.688a.309.309,0,0,0,.313-.313h0a1.85,1.85,0,0,0-.669-1.431L22.352,4.407a2.007,2.007,0,0,0-1.287-.462h0a.461.461,0,0,0-.463.462V8.938A1.187,1.187,0,0,0,21.789,10.126Z" transform="translate(-8.789 -3.938)" fill="currentColor"/>
  <path id="Path_11246" data-name="Path 11246" d="M17.5,8.938v-5H9.313a2.006,2.006,0,0,0-2,2v21a2.006,2.006,0,0,0,2,2h15a2.006,2.006,0,0,0,2-2V11.75h-6A2.817,2.817,0,0,1,17.5,8.938Z" transform="translate(-7.313 -3.938)" fill="currentColor"/>
</svg>
