<svg id="Icon_awesome-calculator" data-name="Icon awesome-calculator" xmlns="http://www.w3.org/2000/svg" width="1rem" height="1rem" viewBox="0 0 21.875 25">
  <path id="Icon_awesome-calculator-2" data-name="Icon awesome-calculator" d="M19.531,0H2.344A2.4,2.4,0,0,0,0,2.344V22.656A2.4,2.4,0,0,0,2.344,25H19.531a2.4,2.4,0,0,0,2.344-2.344V2.344A2.4,2.4,0,0,0,19.531,0ZM6.25,21.25a.672.672,0,0,1-.625.625H3.75a.672.672,0,0,1-.625-.625V19.375a.672.672,0,0,1,.625-.625H5.625a.672.672,0,0,1,.625.625Zm0-6.25a.672.672,0,0,1-.625.625H3.75A.672.672,0,0,1,3.125,15V13.125A.672.672,0,0,1,3.75,12.5H5.625a.672.672,0,0,1,.625.625Zm6.25,6.25a.672.672,0,0,1-.625.625H10a.672.672,0,0,1-.625-.625V19.375A.672.672,0,0,1,10,18.75h1.875a.672.672,0,0,1,.625.625Zm0-6.25a.672.672,0,0,1-.625.625H10A.672.672,0,0,1,9.375,15V13.125A.672.672,0,0,1,10,12.5h1.875a.672.672,0,0,1,.625.625Zm6.25,6.25a.672.672,0,0,1-.625.625H16.25a.672.672,0,0,1-.625-.625V13.125a.672.672,0,0,1,.625-.625h1.875a.672.672,0,0,1,.625.625V21.25Zm0-12.5a.672.672,0,0,1-.625.625H3.75a.672.672,0,0,1-.625-.625v-5a.672.672,0,0,1,.625-.625H18.125a.672.672,0,0,1,.625.625Z" fill="currentColor"/>
</svg>
