<svg id="Icon_metro-user-check" data-name="Icon metro-user-check" xmlns="http://www.w3.org/2000/svg" width="1rem" height="1rem" viewBox="0 0 25 25">
  <path id="Icon_metro-user-check-2" data-name="Icon metro-user-check" d="M26.008,16.772,18.977,23.8l-2.344-2.344-1.562,1.562,3.906,3.906,8.594-8.594Zm-12.5,3.906H21.32V17.867a15,15,0,0,0-6.25-1.813V14.766A6.979,6.979,0,0,0,18.2,8.959c0-3.883,0-7.031-4.687-7.031S8.821,5.076,8.821,8.959a6.979,6.979,0,0,0,3.125,5.806v1.289c-5.3.433-9.375,3.038-9.375,6.186H13.508V20.678Z" transform="translate(-2.57 -1.928)" fill="currentColor"/>
</svg>
